<svg xmlns="http://www.w3.org/2000/svg" xmlns:ev="http://www.w3.org/2001/xml-events" xmlns:xlink="http://www.w3.org/1999/xlink" width="434.768" height="542.132" class="st12" color-interpolation-filters="sRGB" viewBox="0 0 326.076 406.599" xml:space="preserve"><style type="text/css">.st1{fill:#fff;stroke:#000;stroke-linecap:round;stroke-linejoin:round;stroke-width:.75}.st2{fill:#000}.st3{stroke:#000;stroke-linecap:round;stroke-linejoin:round;stroke-width:.75}.st4{fill:#4d1e1a;font-family:宋体;font-size:.833336em}.st5{font-family:Calibri;font-size:1em}.st6{fill:#fff}.st7{fill:#c05046}.st8{stroke:#000;stroke-linecap:round;stroke-linejoin:round;stroke-width:.239976}.st9{fill:#fff;stroke:none;stroke-linecap:butt;stroke-width:7.2}.st10{fill:#000;font-family:宋体;font-size:.666664em}.st11{font-family:Microsoft Sans Serif;font-size:1em}.st12{fill:none;fill-rule:evenodd;font-size:12px;overflow:visible;stroke-linecap:square;stroke-miterlimit:3}</style><g><title>页-1</title><g id="group38-1" transform="translate(92.2175,-20.0036)"><title>智能手机</title><desc>Subscriber</desc><g id="shape39-2" transform="translate(16.7093,0)"><title>工作表.39</title><path d="M0 402.19 C0 403.74 1.26 405.18 2.8 405.39 C2.8 405.39 11.94 406.6 18.72 406.6 C25.5 406.6 34.65 405.39 34.65 405.39 C36.19 405.18 37.45 403.74 37.45 402.19 L37.45 340.14 C37.45 338.59 36.19 337.15 34.65 336.94 C34.65 336.94 25.68 335.73 18.72 335.73 C11.94 335.73 2.8 336.95 2.8 336.95 C1.26 337.15 0 338.59 0 340.14 L0 402.19 Z" class="st1"/></g><g id="shape40-4" transform="translate(19.5351,-8.70177)"><title>工作表.40</title><rect width="31.796" height="52.09" x="0" y="354.509" class="st1"/></g><g id="shape41-6" transform="translate(29.5929,-3.53445)"><title>工作表.41</title><path d="M2.52 405.34 A1.26009 1.26009 -180 1 0 0 405.34 A1.26009 1.26009 -180 1 0 2.52 405.34 ZM7.1 405.34 A1.26009 1.26009 -180 1 0 4.58 405.34 A1.26009 1.26009 -180 1 0 7.1 405.34 ZM11.69 405.34 A1.26083 1.26083 -180 1 0 9.17 405.34 A1.26083 1.26083 -180 1 0 11.69 405.34 Z" class="st2"/><path d="M1.16 345.06 L10.52 345.06" class="st3"/></g><g id="shape38-9"><text x="13.71" y="419.93" class="st4">S<tspan class="st5">ubscriber</tspan></text></g></g><g id="group42-12" transform="translate(170.17,-161.736)"><title>主机.9</title><desc>Server</desc><g id="shape43-13" transform="translate(5.68158,0)"><title>工作表.43</title><path d="M0 406.6 L59.5 406.6 L59.5 335.73 L0 335.73 L0 406.6 Z" class="st6"/><path d="M0 406.6 L59.5 406.6 L59.5 335.73 L0 335.73 L0 406.6" class="st3"/><path d="M29.75 406.6 L29.75 335.73" class="st3"/></g><g id="shape44-17" transform="translate(11.5726,-5.14536)"><title>工作表.44</title><path d="M36.09 362.74 L49.23 362.74 L49.23 347.71 L36.09 347.71 L36.09 362.74 ZM14.89 353.8 L16.68 353.8 L16.68 347.39 L14.89 347.39 L14.89 353.8 ZM14.89 363.03 L16.68 363.03 L16.68 356.62 L14.89 356.62 L14.89 363.03 ZM10.63 353.8 L12.43 353.8 L12.43 347.39 L10.63 347.39 L10.63 353.8 ZM10.63 363.03 L12.43 363.03 L12.43 356.62 L10.63 356.62 L10.63 363.03 ZM4.25 353.8 L6.05 353.8 L6.05 347.39 L4.25 347.39 L4.25 353.8 ZM4.25 363.03 L6.05 363.03 L6.05 356.62 L4.25 356.62 L4.25 363.03 ZM0 353.8 L1.79 353.8 L1.79 347.39 L0 347.39 L0 353.8 ZM0 363.03 L1.79 363.03 L1.79 356.62 L0 356.62 L0 363.03 ZM33.82 397.77 L33.82 399.02 L49.39 399.02 L49.39 397.77 L33.82 397.77 ZM33.82 401.56 L33.82 402.81 L49.39 402.81 L49.39 401.56 L33.82 401.56 ZM33.82 405.35 L33.82 406.6 L49.39 406.6 L49.39 405.35 L33.82 405.35 ZM2.96 399.02 L18.52 399.02 L18.52 397.77 L2.95 397.77 L2.96 399.02 ZM2.96 402.81 L18.52 402.81 L18.52 401.56 L2.95 401.56 L2.96 402.81 ZM2.96 406.6 L18.52 406.6 L18.52 405.35 L2.95 405.35 L2.96 406.6 Z" class="st2"/></g><g id="shape45-20" transform="translate(49.0815,-50.4059)"><title>工作表.45</title><path d="M8.15 395.12 A1.11073 1.11073 -180 1 0 10.24 395.89 A1.11073 1.11073 -180 1 0 8.15 395.12 ZM8.17 398.41 A1.11073 1.11073 -180 1 0 10.22 399.25 A1.11073 1.11073 -180 1 0 8.17 398.41 ZM8.18 401.71 A1.11073 1.11073 -180 1 0 10.21 402.6 A1.11073 1.11073 -180 1 0 8.18 401.71 ZM8.18 405.04 A1.11073 1.11073 -180 1 0 10.21 405.93 A1.11073 1.11073 -180 1 0 8.18 405.04 ZM4.1 395.17 A1.11073 1.11073 -180 1 0 6.21 395.84 A1.11073 1.11073 -180 1 0 4.1 395.17 ZM4.11 398.46 A1.11073 1.11073 -180 1 0 6.2 399.2 A1.11073 1.11073 -180 1 0 4.11 398.46 ZM4.11 401.77 A1.11073 1.11073 -180 1 0 6.19 402.55 A1.11073 1.11073 -180 1 0 4.11 401.77 ZM4.11 405.09 A1.11073 1.11073 -180 1 0 6.19 405.87 A1.11073 1.11073 -180 1 0 4.11 405.09 ZM0.04 395.22 A1.11144 1.11144 -180 1 0 2.19 395.78 A1.11144 1.11144 -180 1 0 0.04 395.22 ZM0.05 398.52 A1.11144 1.11144 -180 1 0 2.18 399.14 A1.11144 1.11144 -180 1 0 0.05 398.52 ZM0.05 401.82 A1.11144 1.11144 -180 1 0 2.17 402.49 A1.11144 1.11144 -180 1 0 0.05 401.82 ZM0.05 405.15 A1.11144 1.11144 -180 1 0 2.17 405.81 A1.11144 1.11144 -180 1 0 0.05 405.15 Z" class="st7"/></g><g id="shape42-23"><text x="21.69" y="419.6" class="st4">Server</text></g></g><g id="group50-25" transform="translate(170.17,-331.815)"><title>PC</title><desc>Publisher</desc><g id="shape51-26" transform="translate(0,-4.72617)"><title>工作表.51</title><path d="M48.01 389.2 L48.01 395.18 L51.62 395.18 L55.04 399.46 L70.87 399.46 L70.87 345.19 L48.01 345.19 L48.01 352.97 L57.81 352.97 L57.81 389.2 L48.01 389.2 ZM57.81 352.97 L3.53 352.97 L3.53 389.2 L57.81 389.2 L57.81 352.97 ZM60.73 406.6 L51.62 395.18 L9.11 395.18 L0 406.6 L60.73 406.6 ZM35.14 389.2 L25.59 389.2 L25.59 395.18 L35.14 395.18 L35.14 389.2 Z" class="st1"/></g><g id="shape52-28" transform="translate(7.05282,-25.393)"><title>工作表.52</title><path d="M47.32 377.23 L0 377.23 L0 406.6 L47.32 406.6 L47.32 377.23 Z" class="st1"/></g><g id="shape53-30" transform="translate(8.26528,-7.08364)"><title>工作表.53</title><path d="M53.45 353.62 L58.34 353.62 L58.34 351.71 L53.45 351.71 L53.45 353.62 ZM53.45 357.02 L58.34 357.02 L58.34 355.11 L53.45 355.11 L53.45 357.02 ZM41.47 402.17 L38.77 402.17 L40.28 403.85 L43.19 403.85 L41.47 402.17 ZM38.42 399.19 L36.1 399.19 L37.72 401 L40.27 401 L38.42 399.19 ZM37.32 402.17 L34.62 402.17 L35.81 403.85 L38.72 403.85 L37.32 402.17 ZM34.84 399.19 L32.52 399.19 L33.79 401 L36.35 401 L34.84 399.19 ZM33.17 402.17 L30.47 402.17 L31.33 403.85 L34.24 403.85 L33.17 402.17 ZM31.27 399.19 L28.95 399.19 L29.88 401.03 L32.44 401.03 L31.27 399.19 ZM29.02 402.17 L26.32 402.17 L26.86 403.85 L29.77 403.85 L29.02 402.17 ZM27.75 399.32 L25.4 399.32 L25.95 401.03 L28.51 401.03 L27.75 399.32 ZM24.87 402.17 L22.17 402.17 L22.38 403.85 L25.29 403.85 L24.87 402.17 ZM24.18 399.46 L21.82 399.46 L22.04 401.14 L24.61 401.14 L24.18 399.46 ZM20.55 399.46 L18.19 399.46 L18.08 401.14 L20.65 401.14 L20.55 399.46 ZM20.71 402.17 L18.01 402.17 L17.9 403.85 L20.81 403.85 L20.71 402.17 ZM16.93 399.46 L14.57 399.46 L14.13 401.14 L16.7 401.14 L16.93 399.46 ZM16.56 402.17 L13.86 402.17 L13.43 403.85 L16.34 403.85 L16.56 402.17 ZM31.37 404.92 L12.32 404.92 L11.83 406.6 L32.19 406.6 L31.37 404.92 ZM13.3 399.46 L10.94 399.46 L10.18 401.14 L12.75 401.14 L13.3 399.46 ZM12.41 402.17 L9.71 402.17 L8.95 403.85 L11.86 403.85 L12.41 402.17 ZM9.67 399.46 L7.31 399.46 L6.22 401.14 L8.79 401.14 L9.67 399.46 ZM8.26 402.17 L5.56 402.17 L4.48 403.85 L7.39 403.85 L8.26 402.17 ZM6.04 399.46 L3.68 399.46 L2.27 401.14 L4.84 401.14 L6.04 399.46 ZM4.11 402.17 L1.41 402.17 L0 403.85 L2.91 403.85 L4.11 402.17 Z" class="st2"/></g><g id="shape50-33"><text x="15.16" y="419.6" class="st4">Publisher</text></g></g><g id="group61-35" transform="translate(6.2776,585.548) rotate(-135)"><title>通信链路.61</title><desc>WebSocket</desc><g id="shape62-36" transform="translate(6.21991,0)"><title>工作表.62</title><path d="M61.89 386.76 L28.35 403.89 L28.51 395.91 L0 406.6 L33.99 387.75 L33.99 396.32 L61.89 386.76 Z" class="st1"/></g><g id="shape63-38" transform="translate(0,-9.92126)"><title>工作表.63</title><path d="M54.51 406.6 L75.1 406.6" class="st3"/><path d="M19.68 406.6 L0 406.6" class="st3"/></g><g id="shape61-42"><text x="256.35" y="-331.34" class="st4" transform="rotate(135)">WebSocket</text></g></g><g id="group76-44" transform="translate(3.91831,-331.815)"><title>环形网络</title><desc>TinyOS实验箱</desc><g id="shape77-45"><title>工作表.77</title><path d="M10.63 395.97 L35.43 371.17" class="st3"/><path d="M35.43 406.6 L35.43 371.17" class="st3"/><path d="M60.24 395.97 L35.43 371.17" class="st3"/><path d="M70.87 371.17 L35.43 371.17" class="st3"/><path d="M60.24 346.36 L35.43 371.17" class="st3"/><path d="M35.43 335.73 L35.43 371.17" class="st3"/><path d="M10.63 346.36 L35.43 371.17" class="st3"/><path d="M0 371.17 L35.43 371.17" class="st3"/><path d="M24.09 371.17 L35.43 371.17" class="st3"/><path d="M27.64 378.96 L35.43 371.17" class="st3"/><path d="M35.43 382.5 L35.43 371.17" class="st3"/><path d="M43.23 378.96 L35.43 371.17" class="st3"/><path d="M46.77 371.17 L35.43 371.17" class="st3"/><path d="M43.23 363.37 L35.43 371.17" class="st3"/><path d="M35.43 359.83 L35.43 371.17" class="st3"/><path d="M27.64 363.37 L35.43 371.17" class="st3"/><path d="M24.09 371.17 L35.43 371.17" class="st3"/><path d="M27.64 378.96 L35.43 371.17" class="st3"/><path d="M35.43 382.5 L35.43 371.17" class="st3"/><path d="M43.23 378.96 L35.43 371.17" class="st3"/><path d="M46.77 371.17 L35.43 371.17" class="st3"/><path d="M43.23 363.37 L35.43 371.17" class="st3"/><path d="M35.43 359.83 L35.43 371.17" class="st3"/><path d="M27.64 363.37 L35.43 371.17" class="st3"/><path d="M24.09 371.17 L35.43 371.17" class="st3"/><path d="M27.64 378.96 L35.43 371.17" class="st3"/><path d="M35.43 382.5 L35.43 371.17" class="st3"/><path d="M43.23 378.96 L35.43 371.17" class="st3"/><path d="M46.77 371.17 L35.43 371.17" class="st3"/><path d="M43.23 363.37 L35.43 371.17" class="st3"/><path d="M35.43 359.83 L35.43 371.17" class="st3"/><path d="M27.64 363.37 L35.43 371.17" class="st3"/><path d="M24.09 371.17 L35.43 371.17" class="st3"/><path d="M27.64 378.96 L35.43 371.17" class="st3"/><path d="M35.43 382.5 L35.43 371.17" class="st3"/><path d="M43.23 378.96 L35.43 371.17" class="st3"/><path d="M46.77 371.17 L35.43 371.17" class="st3"/><path d="M43.23 363.37 L35.43 371.17" class="st3"/><path d="M35.43 359.83 L35.43 371.17" class="st3"/><path d="M27.64 363.37 L35.43 371.17" class="st3"/><path d="M24.09 371.17 L35.43 371.17" class="st3"/><path d="M27.64 378.96 L35.43 371.17" class="st3"/><path d="M35.43 382.5 L35.43 371.17" class="st3"/><path d="M43.23 378.96 L35.43 371.17" class="st3"/><path d="M46.77 371.17 L35.43 371.17" class="st3"/><path d="M43.23 363.37 L35.43 371.17" class="st3"/><path d="M35.43 359.83 L35.43 371.17" class="st3"/><path d="M27.64 363.37 L35.43 371.17" class="st3"/><path d="M24.09 371.17 L35.43 371.17" class="st3"/><path d="M27.64 378.96 L35.43 371.17" class="st3"/><path d="M35.43 382.5 L35.43 371.17" class="st3"/><path d="M43.23 378.96 L35.43 371.17" class="st3"/><path d="M46.77 371.17 L35.43 371.17" class="st3"/><path d="M43.23 363.37 L35.43 371.17" class="st3"/><path d="M35.43 359.83 L35.43 371.17" class="st3"/><path d="M27.64 363.37 L35.43 371.17" class="st3"/><path d="M24.09 371.17 L35.43 371.17" class="st3"/><path d="M27.64 378.96 L35.43 371.17" class="st3"/><path d="M35.43 382.5 L35.43 371.17" class="st3"/><path d="M43.23 378.96 L35.43 371.17" class="st3"/><path d="M46.77 371.17 L35.43 371.17" class="st3"/><path d="M43.23 363.37 L35.43 371.17" class="st3"/><path d="M35.43 359.83 L35.43 371.17" class="st3"/><path d="M27.64 363.37 L35.43 371.17" class="st3"/></g><g id="shape78-111"><title>工作表.78</title><path d="M3.54 371.17 A3.54331 3.54331 -180 1 0 -3.54 371.17 A3.54331 3.54331 -180 1 0 3.54 371.17 ZM14.17 346.36 A3.54331 3.54331 -180 1 0 7.09 346.36 A3.54331 3.54331 -180 1 0 14.17 346.36 ZM38.98 335.73 A3.54331 3.54331 -180 1 0 31.89 335.73 A3.54331 3.54331 -180 1 0 38.98 335.73 ZM63.78 346.36 A3.54331 3.54331 -180 1 0 56.69 346.36 A3.54331 3.54331 -180 1 0 63.78 346.36 ZM74.41 371.17 A3.54331 3.54331 -180 1 0 67.32 371.17 A3.54331 3.54331 -180 1 0 74.41 371.17 ZM63.78 395.97 A3.54331 3.54331 -180 1 0 56.69 395.97 A3.54331 3.54331 -180 1 0 63.78 395.97 ZM38.98 406.6 A3.54331 3.54331 -180 1 0 31.89 406.6 A3.54331 3.54331 -180 1 0 38.98 406.6 ZM14.17 395.97 A3.54331 3.54331 -180 1 0 7.09 395.97 A3.54331 3.54331 -180 1 0 14.17 395.97 ZM27.64 371.17 A3.54331 3.54331 -180 1 0 20.55 371.17 A3.54331 3.54331 -180 1 0 27.64 371.17 ZM31.18 378.96 A3.54331 3.54331 -180 1 0 24.09 378.96 A3.54331 3.54331 -180 1 0 31.18 378.96 ZM38.98 382.5 A3.54331 3.54331 -180 1 0 31.89 382.5 A3.54331 3.54331 -180 1 0 38.98 382.5 ZM46.77 378.96 A3.54331 3.54331 -180 1 0 39.69 378.96 A3.54331 3.54331 -180 1 0 46.77 378.96 ZM50.31 371.17 A3.54331 3.54331 -180 1 0 43.23 371.17 A3.54331 3.54331 -180 1 0 50.31 371.17 ZM46.77 363.37 A3.54331 3.54331 -180 1 0 39.69 363.37 A3.54331 3.54331 -180 1 0 46.77 363.37 ZM38.98 359.83 A3.54331 3.54331 -180 1 0 31.89 359.83 A3.54331 3.54331 -180 1 0 38.98 359.83 ZM31.18 363.37 A3.54331 3.54331 -180 1 0 24.09 363.37 A3.54331 3.54331 -180 1 0 31.18 363.37 ZM27.64 371.17 A3.54331 3.54331 -180 1 0 20.55 371.17 A3.54331 3.54331 -180 1 0 27.64 371.17 ZM31.18 378.96 A3.54331 3.54331 -180 1 0 24.09 378.96 A3.54331 3.54331 -180 1 0 31.18 378.96 ZM38.98 382.5 A3.54331 3.54331 -180 1 0 31.89 382.5 A3.54331 3.54331 -180 1 0 38.98 382.5 ZM46.77 378.96 A3.54331 3.54331 -180 1 0 39.69 378.96 A3.54331 3.54331 -180 1 0 46.77 378.96 ZM50.31 371.17 A3.54331 3.54331 -180 1 0 43.23 371.17 A3.54331 3.54331 -180 1 0 50.31 371.17 ZM46.77 363.37 A3.54331 3.54331 -180 1 0 39.69 363.37 A3.54331 3.54331 -180 1 0 46.77 363.37 ZM38.98 359.83 A3.54331 3.54331 -180 1 0 31.89 359.83 A3.54331 3.54331 -180 1 0 38.98 359.83 ZM31.18 363.37 A3.54331 3.54331 -180 1 0 24.09 363.37 A3.54331 3.54331 -180 1 0 31.18 363.37 ZM27.64 371.17 A3.54331 3.54331 -180 1 0 20.55 371.17 A3.54331 3.54331 -180 1 0 27.64 371.17 ZM31.18 378.96 A3.54331 3.54331 -180 1 0 24.09 378.96 A3.54331 3.54331 -180 1 0 31.18 378.96 ZM38.98 382.5 A3.54331 3.54331 -180 1 0 31.89 382.5 A3.54331 3.54331 -180 1 0 38.98 382.5 ZM46.77 378.96 A3.54331 3.54331 -180 1 0 39.69 378.96 A3.54331 3.54331 -180 1 0 46.77 378.96 ZM50.31 371.17 A3.54331 3.54331 -180 1 0 43.23 371.17 A3.54331 3.54331 -180 1 0 50.31 371.17 ZM46.77 363.37 A3.54331 3.54331 -180 1 0 39.69 363.37 A3.54331 3.54331 -180 1 0 46.77 363.37 ZM38.98 359.83 A3.54331 3.54331 -180 1 0 31.89 359.83 A3.54331 3.54331 -180 1 0 38.98 359.83 ZM31.18 363.37 A3.54331 3.54331 -180 1 0 24.09 363.37 A3.54331 3.54331 -180 1 0 31.18 363.37 ZM27.64 371.17 A3.54331 3.54331 -180 1 0 20.55 371.17 A3.54331 3.54331 -180 1 0 27.64 371.17 ZM31.18 378.96 A3.54331 3.54331 -180 1 0 24.09 378.96 A3.54331 3.54331 -180 1 0 31.18 378.96 ZM38.98 382.5 A3.54331 3.54331 -180 1 0 31.89 382.5 A3.54331 3.54331 -180 1 0 38.98 382.5 ZM46.77 378.96 A3.54331 3.54331 -180 1 0 39.69 378.96 A3.54331 3.54331 -180 1 0 46.77 378.96 ZM50.31 371.17 A3.54331 3.54331 -180 1 0 43.23 371.17 A3.54331 3.54331 -180 1 0 50.31 371.17 ZM46.77 363.37 A3.54331 3.54331 -180 1 0 39.69 363.37 A3.54331 3.54331 -180 1 0 46.77 363.37 ZM38.98 359.83 A3.54331 3.54331 -180 1 0 31.89 359.83 A3.54331 3.54331 -180 1 0 38.98 359.83 ZM31.18 363.37 A3.54331 3.54331 -180 1 0 24.09 363.37 A3.54331 3.54331 -180 1 0 31.18 363.37 ZM27.64 371.17 A3.54331 3.54331 -180 1 0 20.55 371.17 A3.54331 3.54331 -180 1 0 27.64 371.17 ZM31.18 378.96 A3.54331 3.54331 -180 1 0 24.09 378.96 A3.54331 3.54331 -180 1 0 31.18 378.96 ZM38.98 382.5 A3.54331 3.54331 -180 1 0 31.89 382.5 A3.54331 3.54331 -180 1 0 38.98 382.5 ZM46.77 378.96 A3.54331 3.54331 -180 1 0 39.69 378.96 A3.54331 3.54331 -180 1 0 46.77 378.96 ZM50.31 371.17 A3.54331 3.54331 -180 1 0 43.23 371.17 A3.54331 3.54331 -180 1 0 50.31 371.17 ZM46.77 363.37 A3.54331 3.54331 -180 1 0 39.69 363.37 A3.54331 3.54331 -180 1 0 46.77 363.37 ZM38.98 359.83 A3.54331 3.54331 -180 1 0 31.89 359.83 A3.54331 3.54331 -180 1 0 38.98 359.83 ZM31.18 363.37 A3.54331 3.54331 -180 1 0 24.09 363.37 A3.54331 3.54331 -180 1 0 31.18 363.37 ZM27.64 371.17 A3.54331 3.54331 -180 1 0 20.55 371.17 A3.54331 3.54331 -180 1 0 27.64 371.17 ZM31.18 378.96 A3.54331 3.54331 -180 1 0 24.09 378.96 A3.54331 3.54331 -180 1 0 31.18 378.96 ZM38.98 382.5 A3.54331 3.54331 -180 1 0 31.89 382.5 A3.54331 3.54331 -180 1 0 38.98 382.5 ZM46.77 378.96 A3.54331 3.54331 -180 1 0 39.69 378.96 A3.54331 3.54331 -180 1 0 46.77 378.96 ZM50.31 371.17 A3.54331 3.54331 -180 1 0 43.23 371.17 A3.54331 3.54331 -180 1 0 50.31 371.17 ZM46.77 363.37 A3.54331 3.54331 -180 1 0 39.69 363.37 A3.54331 3.54331 -180 1 0 46.77 363.37 ZM38.98 359.83 A3.54331 3.54331 -180 1 0 31.89 359.83 A3.54331 3.54331 -180 1 0 38.98 359.83 ZM31.18 363.37 A3.54331 3.54331 -180 1 0 24.09 363.37 A3.54331 3.54331 -180 1 0 31.18 363.37 ZM27.64 371.17 A3.54331 3.54331 -180 1 0 20.55 371.17 A3.54331 3.54331 -180 1 0 27.64 371.17 ZM31.18 378.96 A3.54331 3.54331 -180 1 0 24.09 378.96 A3.54331 3.54331 -180 1 0 31.18 378.96 ZM38.98 382.5 A3.54331 3.54331 -180 1 0 31.89 382.5 A3.54331 3.54331 -180 1 0 38.98 382.5 ZM46.77 378.96 A3.54331 3.54331 -180 1 0 39.69 378.96 A3.54331 3.54331 -180 1 0 46.77 378.96 ZM50.31 371.17 A3.54331 3.54331 -180 1 0 43.23 371.17 A3.54331 3.54331 -180 1 0 50.31 371.17 ZM46.77 363.37 A3.54331 3.54331 -180 1 0 39.69 363.37 A3.54331 3.54331 -180 1 0 46.77 363.37 ZM38.98 359.83 A3.54331 3.54331 -180 1 0 31.89 359.83 A3.54331 3.54331 -180 1 0 38.98 359.83 ZM31.18 363.37 A3.54331 3.54331 -180 1 0 24.09 363.37 A3.54331 3.54331 -180 1 0 31.18 363.37 Z" class="st1"/></g><g id="shape79-113"><title>工作表.79</title><ellipse cx="35.433" cy="371.166" class="st1" rx="17.716" ry="17.716"/></g><g id="shape80-115" transform="translate(24.3602,-24.3602)"><title>工作表.80</title><ellipse cx="11.073" cy="395.526" class="st1" rx="11.073" ry="11.073"/></g><g id="shape76-117"><text x="4.95" y="419.6" class="st4">TinyOS实验箱</text></g></g><g id="shape81-119" transform="translate(173.704,-360.161)"><title>动态连接线</title><desc>Usb to Serial Port</desc><path d="M0 399.51 L-95.38 399.51" class="st8"/><rect width="62.737" height="10.656" x="-79.056" y="394.185" class="st9"/><text x="-79.06" y="402.18" class="st10">Usb to <tspan class="st11">S</tspan><tspan class="st5">erial </tspan><tspan class="st11">P</tspan><tspan class="st5">ort</tspan></text></g><g id="group82-128" transform="translate(255.21,-20.0036)"><title>智能手机.82</title><desc>Subscriber</desc><g id="shape83-129" transform="translate(16.7093,0)"><title>工作表.83</title><path d="M0 402.19 C0 403.74 1.26 405.18 2.8 405.39 C2.8 405.39 11.94 406.6 18.72 406.6 C25.5 406.6 34.65 405.39 34.65 405.39 C36.19 405.18 37.45 403.74 37.45 402.19 L37.45 340.14 C37.45 338.59 36.19 337.15 34.65 336.94 C34.65 336.94 25.68 335.73 18.72 335.73 C11.94 335.73 2.8 336.95 2.8 336.95 C1.26 337.15 0 338.59 0 340.14 L0 402.19 Z" class="st1"/></g><g id="shape84-131" transform="translate(19.5351,-8.70177)"><title>工作表.84</title><rect width="31.796" height="52.09" x="0" y="354.509" class="st1"/></g><g id="shape85-133" transform="translate(29.5929,-3.53445)"><title>工作表.85</title><path d="M2.52 405.34 A1.26009 1.26009 -180 1 0 0 405.34 A1.26009 1.26009 -180 1 0 2.52 405.34 ZM7.1 405.34 A1.26009 1.26009 -180 1 0 4.58 405.34 A1.26009 1.26009 -180 1 0 7.1 405.34 ZM11.69 405.34 A1.26083 1.26083 -180 1 0 9.17 405.34 A1.26083 1.26083 -180 1 0 11.69 405.34 Z" class="st2"/><path d="M1.16 345.06 L10.52 345.06" class="st3"/></g><g id="shape82-136"><text x="13.71" y="419.93" class="st4">S<tspan class="st5">ubscriber</tspan></text></g></g><g id="group86-139" transform="translate(-191.447,169.521) rotate(-90)"><title>通信链路.86</title><desc>WebSocket</desc><g id="shape87-140" transform="translate(6.08537,0)"><title>工作表.87</title><path d="M60.55 386.76 L27.74 403.89 L27.89 395.91 L0 406.6 L33.25 387.75 L33.25 396.32 L60.55 386.76 Z" class="st1"/></g><g id="shape88-142" transform="translate(0,-9.92126)"><title>工作表.88</title><path d="M53.33 406.6 L73.48 406.6" class="st3"/><path d="M19.26 406.6 L0 406.6" class="st3"/></g><g id="shape86-146"><text x="412.27" y="-33.74" class="st4" transform="rotate(90)">WebSocket</text></g></g><g id="group98-148" transform="translate(422.35,576.379) rotate(143.13)"><title>通信链路.98</title><desc>WebSocket</desc><g id="shape99-149" transform="translate(5.86913,0)"><title>工作表.99</title><path d="M58.4 386.76 L26.75 403.89 L26.9 395.91 L0 406.6 L32.07 387.75 L32.07 396.32 L58.4 386.76 Z" class="st1"/></g><g id="shape100-151" transform="translate(0,-9.92126)"><title>工作表.100</title><path d="M51.43 406.6 L70.87 406.6" class="st3"/><path d="M18.57 406.6 L0 406.6" class="st3"/></g><g id="shape98-155"><text x="-312.99" y="-322.09" class="st4" transform="rotate(-143.13)">WebSocket</text></g></g></g></svg>