<svg xmlns="http://www.w3.org/2000/svg" xmlns:xlink="http://www.w3.org/1999/xlink" id="Capa_1" width="32" height="32" x="0" y="0" enable-background="new 0 0 32 32" version="1.1" viewBox="0 0 32 32" xml:space="preserve"><path fill="#FFD878" d="M6.5,26.5c6-1.188,10,4,10,4s4-5.188,10-4c-1.186-6.001,4-10,4-10s-5.187-4-4-10c0,0-6,1-10-4	c-4,5-10,4-10,4s0.999,6-4,10C7.5,20.5,6.5,26.5,6.5,26.5z"/><circle cx="16.5" cy="16.5" r="8" fill="#FFE4A9"/><circle cx="16.5" cy="16.5" r="8" fill="none" stroke="#4D5152" stroke-miterlimit="10"/><path fill="none" stroke="#4D5152" stroke-miterlimit="10" d="M6.5,26.5c6-1.188,10,4,10,4s4-5.188,10-4c-1.186-6.001,4-10,4-10	s-5.187-4-4-10c0,0-6,1-10-4c-4,5-10,4-10,4s0.999,6-4,10C7.5,20.5,6.5,26.5,6.5,26.5z"/></svg>